<?xml version="1.0" encoding="UTF-8"?>
<svg xmlns="http://www.w3.org/2000/svg" xmlns:xlink="http://www.w3.org/1999/xlink" width="42pt" height="25pt" viewBox="0 0 42 25" version="1.1">
<g id="surface1">
<path style="fill-rule:nonzero;fill:rgb(0%,0%,0%);fill-opacity:1;stroke-width:1;stroke-linecap:butt;stroke-linejoin:miter;stroke:rgb(0%,49.803922%,100%);stroke-opacity:1;stroke-miterlimit:4;" d="M 507.601097 196.334475 C 506.655599 188.069006 502.546317 183.918225 502.546317 183.918225 C 502.546317 183.918225 504.364583 178.395881 497.92792 173.811975 C 491.527623 169.228069 469.926618 168.75885 469.926618 168.75885 L 459.344308 158.183381 C 459.344308 158.183381 460.72619 153.599475 459.344308 153.130256 C 457.962426 152.697131 456.144159 152.697131 456.144159 152.697131 L 446.470982 145.767131 L 440.507068 147.174787 C 440.507068 147.174787 435.452288 142.590881 428.579241 139.811662 C 421.669829 137.068537 416.615048 137.537756 416.615048 137.537756 C 416.615048 137.537756 408.360119 132.015412 401.450707 130.174631 C 394.57766 128.33385 385.377232 127.395412 385.377232 127.395412 C 385.377232 127.395412 381.704334 120.970725 374.831287 118.2276 C 367.921875 115.484475 358.285063 118.2276 358.285063 118.2276 L 343.120722 119.599162 C 343.120722 119.599162 335.302176 123.749944 335.302176 126.493069 C 335.302176 129.236194 335.302176 133.386975 335.302176 133.386975 L 342.647972 132.917756 C 342.647972 132.917756 344.029855 137.068537 346.320871 137.068537 C 348.611886 137.068537 355.521298 138.4401 355.521298 138.4401 C 355.521298 138.4401 359.666946 146.23635 361.485212 146.23635 C 363.339844 146.23635 379.413318 147.174787 379.413318 147.174787 C 379.413318 147.174787 385.849981 149.917912 387.231864 149.917912 C 388.613746 149.917912 389.522879 158.183381 393.668527 161.395725 C 397.777809 164.608069 404.687221 166.44885 404.687221 166.44885 L 405.123605 171.06885 L 401.923456 171.971194 L 400.068824 173.342756 C 400.068824 173.342756 397.777809 171.501975 395.486793 171.501975 C 393.195778 171.501975 375.267671 174.281194 375.267671 174.281194 L 372.540272 175.183537 L 357.37593 170.599631 L 329.811012 170.599631 C 329.811012 170.599631 318.319568 166.918069 315.555804 166.918069 C 312.792039 166.918069 304.537109 168.289631 304.537109 168.289631 C 304.537109 168.289631 293.48205 166.015725 292.136533 166.015725 C 290.75465 166.015725 282.936105 168.75885 282.936105 168.75885 L 257.662202 177.962756 C 257.662202 177.962756 251.698289 177.962756 249.843657 179.334319 C 248.025391 180.705881 237.006696 187.130569 235.624814 190.342913 C 234.242932 193.555256 226.897135 207.343069 226.897135 207.343069 L 209.878162 207.812287 C 209.878162 207.812287 207.150763 212.396194 208.969029 212.865412 C 210.787295 213.334631 213.55106 215.175412 213.55106 215.175412 L 214.02381 217.918538 L 207.114397 220.228538 C 204.823382 220.228538 196.095703 219.759319 196.095703 219.759319 L 196.568452 225.750881 L 195.659319 228.927131 L 191.986421 229.39635 C 191.986421 229.39635 156.130208 212.396194 146.020647 203.661506 C 135.911086 194.926819 135.911086 195.396037 134.09282 193.122131 C 132.238188 190.812131 122.128627 179.767444 122.128627 179.767444 L 117.98298 179.767444 L 118.455729 183.449006 C 118.455729 183.449006 134.09282 205.971506 146.493397 212.396194 C 158.893973 218.820881 179.549479 230.767912 201.623233 242.714944 C 223.660621 254.661975 290.281901 292.813069 302.682478 299.706975 C 315.083054 306.600881 362.867094 334.609631 378.031436 339.662756 C 393.195778 344.715881 406.069103 342.405881 406.069103 342.405881 L 406.978237 343.344319 C 406.978237 343.344319 406.978237 345.618225 415.705915 346.087444 C 424.433594 346.556663 424.433594 346.556663 424.433594 346.556663 L 424.906343 341.503537 L 436.83417 327.715725 L 439.597935 321.760256 C 439.597935 321.760256 444.179967 319.919475 444.652716 317.140256 C 445.125465 314.397131 446.034598 306.600881 446.034598 306.600881 L 449.707496 303.821663 C 449.707496 303.821663 453.853144 303.821663 458.435175 301.078537 C 463.017206 298.299319 468.544736 289.600725 470.363002 284.078381 C 472.217634 278.556038 472.654018 277.184475 472.654018 277.184475 L 474.0359 271.662131 C 474.0359 271.662131 488.763858 257.874319 489.672991 255.131194 C 490.582124 252.388069 490.582124 245.024944 490.582124 245.024944 C 490.582124 245.024944 491.964007 239.033381 492.87314 233.547131 C 493.818638 228.024788 494.727772 226.184006 494.727772 226.184006 C 494.727772 226.184006 502.546317 213.767756 503.45545 210.555412 C 504.364583 207.343069 508.510231 204.599944 507.601097 196.334475 Z M 328.865513 250.980412 L 326.574498 258.343538 C 326.574498 258.343538 320.137835 262.0251 319.228702 264.768225 C 318.319568 267.547444 317.37407 272.13135 317.37407 272.13135 L 317.846819 284.078381 L 310.973772 286.388381 L 308.210007 292.813069 L 230.570033 251.449631 C 230.570033 251.449631 239.734096 241.343381 241.115978 240.874163 C 242.497861 240.441037 248.461775 237.228694 248.461775 237.228694 L 266.86263 218.820881 L 283.845238 219.2901 L 290.281901 211.926975 C 290.281901 211.926975 294.863932 211.024631 307.300874 211.926975 C 319.701451 212.865412 336.684059 213.334631 336.684059 213.334631 C 336.684059 213.334631 339.920573 216.546975 342.211589 217.016194 C 344.502604 217.449319 347.266369 219.759319 347.266369 219.759319 L 348.611886 222.069319 C 348.611886 222.069319 346.79362 224.343225 346.320871 228.927131 C 345.884487 233.547131 344.938988 235.387912 344.938988 235.387912 L 339.447824 238.600256 L 335.774926 246.865725 Z M 441.888951 258.812756 L 437.30692 265.706662 C 437.30692 265.706662 434.543155 271.662131 432.688523 274.44135 C 430.870257 277.184475 428.106492 286.821506 428.106492 286.821506 L 424.433594 288.662287 L 422.578962 293.715413 C 422.578962 293.715413 412.94215 309.344006 411.560268 311.184787 C 410.178385 313.025569 408.832868 334.609631 408.832868 334.609631 C 408.832868 334.609631 402.396205 335.511975 398.723307 334.140413 C 395.050409 332.76885 384.940848 330.928069 373.449405 325.405725 C 361.957961 319.919475 338.975074 307.503225 338.975074 307.503225 L 340.829706 303.352444 L 343.120722 298.299319 L 349.557385 297.866194 C 349.557385 297.866194 352.32115 300.1401 353.666667 300.1401 C 355.048549 300.1401 353.230283 293.715413 353.230283 293.715413 L 353.230283 284.980725 C 353.230283 284.980725 358.757812 283.139944 359.666946 281.768381 C 360.576079 280.396819 362.430711 275.343694 362.430711 275.343694 L 367.921875 272.600569 L 371.594773 264.299006 C 371.594773 264.299006 377.122303 262.458225 378.031436 260.184319 C 378.940569 257.874319 380.322452 255.600413 380.322452 255.600413 L 382.177083 255.600413 L 383.99535 258.812756 L 390.904762 262.0251 L 396.868676 261.555881 L 395.959542 266.139788 L 394.104911 269.352131 L 395.486793 270.759788 C 395.486793 270.759788 396.868676 270.290569 398.250558 269.82135 C 399.63244 269.352131 399.63244 262.0251 399.63244 262.0251 L 402.396205 260.653537 L 425.815476 260.653537 C 425.815476 260.653537 433.161272 254.661975 434.543155 254.192756 C 435.925037 253.759631 441.888951 254.192756 441.888951 254.192756 Z M 441.888951 258.812756 " transform="matrix(0.107417,0,0,0.108225,-12.61477,-12.607695)"/>
</g>
</svg>
