<?xml version="1.0" encoding="UTF-8" standalone="no"?>
<svg
   xmlns:osb="http://www.openswatchbook.org/uri/2009/osb"
   xmlns:dc="http://purl.org/dc/elements/1.1/"
   xmlns:cc="http://creativecommons.org/ns#"
   xmlns:rdf="http://www.w3.org/1999/02/22-rdf-syntax-ns#"
   xmlns:svg="http://www.w3.org/2000/svg"
   xmlns="http://www.w3.org/2000/svg"
   xmlns:xlink="http://www.w3.org/1999/xlink"
   xmlns:sodipodi="http://sodipodi.sourceforge.net/DTD/sodipodi-0.dtd"
   xmlns:inkscape="http://www.inkscape.org/namespaces/inkscape"
   width="390.78995"
   height="230.5674"
   id="svg2"
   version="1.1"
   inkscape:version="0.48.4 r9939"
   sodipodi:docname="Snowboard.svg">
  <metadata
     id="metadata18">
    <rdf:RDF>
      <cc:Work
         rdf:about="">
        <dc:format>image/svg+xml</dc:format>
        <dc:type
           rdf:resource="http://purl.org/dc/dcmitype/StillImage" />
      </cc:Work>
    </rdf:RDF>
  </metadata>
  <defs
     id="defs16">
    <linearGradient
       id="linearGradient5225"
       osb:paint="solid">
      <stop
         style="stop-color:#000000;stop-opacity:1;"
         offset="0"
         id="stop5227" />
    </linearGradient>
    <linearGradient
       inkscape:collect="always"
       xlink:href="#linearGradient5225"
       id="linearGradient5229"
       x1="117.50001"
       y1="231.77622"
       x2="508.22189"
       y2="231.77622"
       gradientUnits="userSpaceOnUse" />
  </defs>
  <sodipodi:namedview
     pagecolor="#ffffff"
     bordercolor="#666666"
     borderopacity="1"
     objecttolerance="10"
     gridtolerance="10"
     guidetolerance="10"
     inkscape:pageopacity="0"
     inkscape:pageshadow="2"
     inkscape:window-width="1855"
     inkscape:window-height="1176"
     id="namedview14"
     showgrid="false"
     fit-margin-top="0"
     fit-margin-left="0"
     fit-margin-right="0"
     fit-margin-bottom="0"
     inkscape:zoom="0.49166667"
     inkscape:cx="-272.8411"
     inkscape:cy="-25.875"
     inkscape:window-x="65"
     inkscape:window-y="24"
     inkscape:window-maximized="1"
     inkscape:current-layer="g6" />
  <title
     id="title4">Snowboard</title>
  <g
     id="g6"
     transform="translate(-117.4375,-116.4951)">
    <title
       id="title8">Layer 1</title>
    <g
       id="g10">
      <path
         d="m 507.59,196.323 c -0.917,-8.269 -5.055,-12.40399 -5.055,-12.40399 0,0 1.83899,-5.51601 -4.59399,-10.10501 -6.431,-4.59 -28.02503,-5.04999 -28.02503,-5.04999 L 459.34799,158.194 c 0,0 1.37601,-4.59399 0,-5.05299 -1.37298,-0.45702 -3.21399,-0.45702 -3.21399,-0.45702 l -9.64599,-6.89899 -5.973,1.38199 c 0,0 -5.052,-4.59399 -11.945,-7.34999 -6.89401,-2.757 -11.94602,-2.297 -11.94602,-2.297 0,0 -8.26898,-5.511 -15.16198,-7.352 -6.887,-1.841 -16.07901,-2.756 -16.07901,-2.756 0,0 -3.67701,-6.433 -10.56501,-9.188 -6.89001,-2.753 -16.53799,0 -16.53799,0 l -15.16,1.38 c 0,0 -7.80899,4.129 -7.80899,6.889 0,2.751 0,6.889 0,6.889 l 7.34799,-0.46 c 0,0 1.37799,4.138 3.67499,4.138 2.29501,0 9.19201,1.375 9.19201,1.375 0,0 4.13202,7.809 5.97,7.809 1.83899,0 17.91599,0.92299 17.91599,0.92299 0,0 6.43301,2.75301 7.80902,2.75301 1.38199,0 2.30298,8.27299 6.435,11.485 4.13299,3.22 11.026,5.05301 11.026,5.05301 l 0.45599,4.59799 -3.20999,0.91901 -1.84201,1.37799 c 0,0 -2.298,-1.838 -4.59298,-1.838 -2.29902,0 -20.215,2.76001 -20.215,2.76001 L 372.525,175.19 357.361,170.59601 h -27.564 c 0,0 -11.487,-3.677 -14.24499,-3.677 -2.75202,0 -11.021,1.384 -11.021,1.384 0,0 -11.031,-2.29901 -12.40701,-2.29901 -1.38199,0 -9.18997,2.76001 -9.18997,2.76001 l -25.26801,9.18199 c 0,0 -5.97201,0 -7.80902,1.37801 -1.838,1.37799 -12.86499,7.81099 -14.241,11.02899 -1.38199,3.216 -8.72899,17 -8.72899,17 l -16.999,0.457 c 0,0 -2.75501,4.59201 -0.91899,5.05299 1.83198,0.45801 4.59198,2.29702 4.59198,2.29702 l 0.458,2.75599 -6.88699,2.30101 c -2.29701,0 -11.02901,-0.46 -11.02901,-0.46 l 0.46001,5.97599 -0.921,3.21001 -3.672,0.46098 c 0,0 -35.83501,-17.00099 -45.939,-25.72899 -10.111,-8.731 -10.111,-8.27101 -11.95001,-10.563 -1.836,-2.3 -11.94299,-13.32899 -11.94299,-13.32899 h -4.138 l 0.46,3.675 c 0,0 15.62099,22.51399 28.025,28.942 12.40601,6.43498 33.08202,18.37799 55.131,30.32599 22.05101,11.942 88.669,50.076 101.07199,56.96602 12.406,6.893 60.18399,34.914 75.34601,39.97098 15.15799,5.053 28.02301,2.76001 28.02301,2.76001 l 0.92099,0.91299 c 0,0 0,2.297 8.72399,2.758 8.73102,0.458 8.73102,0.458 8.73102,0.458 l 0.461,-5.05001 11.94299,-13.78397 2.758,-5.97104 c 0,0 4.59201,-1.84399 5.05301,-4.59598 0.461,-2.75799 1.38199,-10.56598 1.38199,-10.56598 l 3.673,-2.75702 c 0,0 4.13401,-0.003 8.73099,-2.76001 4.59302,-2.75399 10.10202,-11.48297 11.94202,-16.99698 1.83798,-5.51101 2.29498,-6.893 2.29498,-6.893 l 1.38001,-5.51001 c 0,0 14.703,-13.78201 15.61999,-16.53999 0.92001,-2.75501 0.92001,-10.10701 0.92001,-10.10701 0,0 1.38001,-5.97199 2.293,-11.485 0.92099,-5.51499 1.84201,-7.351 1.84201,-7.351 0,0 7.80899,-12.405 8.728,-15.61899 0.91998,-3.21402 5.05298,-5.972 4.13599,-14.24301 z m -178.715,54.671 -2.297,7.35402 c 0,0 -6.43499,3.67298 -7.34802,6.42896 -0.92096,2.75802 -1.83798,7.35202 -1.83798,7.35202 l 0.45602,11.94302 -6.89102,2.29898 -2.758,6.43302 L 230.56,251.455 c 0,0 9.19,-10.10701 10.56799,-10.567 1.37401,-0.461 7.34801,-3.673 7.34801,-3.673 l 18.37599,-18.379 17,0.461 6.43301,-7.35599 c 0,0 4.59,-0.91501 17,0 12.39902,0.92099 29.39701,1.37999 29.39701,1.37999 0,0 3.22097,3.218 5.51397,3.679 2.29901,0.45401 5.05701,2.75499 5.05701,2.75499 l 1.37302,2.29701 c 0,0 -1.83402,2.297 -2.29502,6.88901 -0.45599,4.59599 -1.37799,6.435 -1.37799,6.435 l -5.509,3.21399 -3.67502,8.27 -6.89398,4.134 z m 113.01801,7.80898 -4.594,6.89401 c 0,0 -2.75601,5.97201 -4.599,8.729 -1.836,2.75202 -4.59201,12.404 -4.59201,12.404 l -3.67499,1.83902 -1.83801,5.05096 c 0,0 -9.646,15.62201 -11.02499,17.45901 -1.375,1.836 -2.75501,23.42701 -2.75501,23.42701 0,0 -6.435,0.92099 -10.10699,-0.461 -3.67499,-1.375 -13.77799,-3.21201 -25.26599,-8.72299 -11.487,-5.51203 -34.45801,-17.91602 -34.45801,-17.91602 l 1.83499,-4.138 2.29898,-5.05499 6.43103,-0.461 c 0,0 2.75598,2.29699 4.133,2.29699 1.37997,0 -0.45801,-6.42999 -0.45801,-6.42999 v -8.728 c 0,0 5.51602,-1.841 6.43298,-3.21902 0.91901,-1.37799 2.75803,-6.431 2.75803,-6.431 l 5.51297,-2.75501 3.673,-8.27096 c 0,0 5.51401,-1.83902 6.43503,-4.13101 0.91498,-2.30002 2.297,-4.597 2.297,-4.597 h 1.83499 l 1.83999,3.214 6.892,3.21701 5.974,-0.46103 -0.92099,4.59403 -1.83701,3.21698 1.37799,1.38202 c 0,0 1.38001,-0.46103 2.75602,-0.92102 1.38,-0.461 1.376,-7.81098 1.376,-7.81098 l 2.758,-1.38202 h 23.431 c 0,0 7.35001,-5.97 8.73099,-6.427 1.38202,-0.461 7.35,0 7.35,0 v 4.59399 l -0.003,0 z"
         id="path12"
         inkscape:connector-curvature="0"
         style="fill:url(#linearGradient5229);stroke:#007fff;fill-opacity:1" />
    </g>
  </g>
</svg>
